<svg enable-background="new 0 0 144.083 144" height="44" viewBox="0 0 144.083 144" width="144.083" xmlns="http://www.w3.org/2000/svg"><path d="m72.041 11.166c-33.543 0-60.833 27.29-60.833 60.834s27.29 60.834 60.833 60.834c33.544 0 60.834-27.29 60.834-60.834s-27.291-60.834-60.834-60.834zm0 115.668c-30.235 0-54.833-24.599-54.833-54.834s24.598-54.834 54.833-54.834 54.834 24.599 54.834 54.834-24.599 54.834-54.834 54.834z"/><path d="m91.076 42.701h-38.07c-5.615 0-10.184 4.568-10.184 10.184v38.245c0 5.615 4.568 10.184 10.184 10.184h38.069c5.615 0 10.184-4.568 10.184-10.184v-38.246c0-5.615-4.568-10.183-10.183-10.183zm-10.229 29.198c0 4.856-3.95 8.806-8.806 8.806s-8.806-3.95-8.806-8.806c0-2.409.974-4.593 2.546-6.184h12.519c1.574 1.591 2.547 3.775 2.547 6.184zm2.553-21.05h8.92v9.189h-8.92zm7.676 44.464h-38.07c-2.307 0-4.184-1.877-4.184-4.184v-25.414h9.784c-.871 1.885-1.371 3.975-1.371 6.184 0 8.165 6.642 14.806 14.806 14.806s14.806-6.642 14.806-14.806c0-2.209-.5-4.299-1.371-6.184h9.783v25.414c0 2.307-1.877 4.184-4.183 4.184z"/></svg>